<svg xmlns="http://www.w3.org/2000/svg" width="17" height="9" viewBox="0 0 17 9">
  <g fill="none" fill-rule="evenodd" transform="translate(0 1)">
    <path stroke="#B1BBC7" d="M1.06823388,2.6052897 C3.45342184,0.8684299 5.8222469,1.51759053e-16 8.17470904,0 C10.516247,0 12.8739962,0.860383105 15.2479567,2.58114932 L15.2479305,2.58118542 C15.6950779,2.90530036 15.7948153,3.53053197 15.4707004,3.97767932 C15.4033866,4.07054508 15.3205977,4.15113778 15.2259562,4.21593108 C12.798899,5.87753797 10.4048523,6.70834141 8.04381615,6.70834141 C5.68668232,6.70834141 3.36244999,5.88028202 1.07111914,4.22416324 L1.07110284,4.22418579 C0.623482276,3.90065642 0.522886487,3.27551589 0.846415854,2.82789532 C0.908161419,2.74246696 0.983024904,2.66733766 1.06823388,2.6052897 Z" transform="matrix(-1 0 0 1 16.318 0)"/>
    <circle cx="8.316" cy="3.454" r="2.431" fill="#B1BBC7"/>
  </g>
</svg>
