<svg xmlns="http://www.w3.org/2000/svg" width="14" height="13" viewBox="0 0 14 13">
  <g fill="#6A7C94" fill-rule="evenodd">
    <path d="M7.90940568,0.333867433 L13.5488241,6.64785745 L13.5488241,6.64785745 C13.9167244,7.05976497 13.8810495,7.69192412 13.469142,8.05982443 C13.2858667,8.22351902 13.0487347,8.31399988 12.8029996,8.31399988 L1.5241627,8.31399988 L1.5241627,8.31399988 C0.97187795,8.31399988 0.524162699,7.86628463 0.524162699,7.31399988 C0.524162699,7.06826477 0.614643566,6.83113272 0.778338153,6.64785745 L6.41775658,0.333867433 L6.41775658,0.333867433 C6.78565689,-0.0780400896 7.41781604,-0.113714985 7.82972357,0.254185324 C7.85776087,0.279227194 7.8843638,0.305830124 7.90940568,0.333867433 Z" transform="rotate(180 7.164 4.157)"/>
    <rect width="2.328" height="8.255" x="6.21" y="4.016" rx="1.164"/>
  </g>
</svg>
