<svg xmlns="http://www.w3.org/2000/svg" width="19" height="22" viewBox="0 0 19 22">
  <g fill="none" fill-rule="evenodd" stroke="#979797" stroke-width="2" transform="translate(1 1)">
    <circle cx="8.103" cy="16.531" r="2.917"/>
    <path fill="#FFFFFF" d="M1.85631458,16.1698771 L14.4604352,16.1698771 L14.4604352,16.1698771 C15.4464733,16.1698771 16.2458151,15.3705353 16.2458151,14.3844972 L16.2458151,14.1816652 L16.2458151,14.1816652 C16.2458151,13.1687366 15.8417099,12.1976634 15.1231078,11.483776 L15.1231078,11.483776 L15.1231078,11.483776 C14.4045056,10.7698886 14.0004004,9.79881536 14.0004004,8.78588678 C14.0004004,7.4747459 14.0004004,6.16360502 14.0004004,4.85246414 C14.0004004,3.06208321 13.7012642,2.0681875 12.8483841,1.34191552 C11.7110534,0.373419056 9.78448341,7.10542736e-15 8.1583749,7.10542736e-15 C6.69474756,7.10542736e-15 5.24100701,0.468484802 4.17481091,1.34191552 C3.16815438,2.16657127 2.50703456,3.35197895 2.50703456,4.85246414 C2.50703456,6.14060288 2.50703456,7.42874162 2.50703456,8.71688036 L2.50703456,8.71688036 C2.50703456,9.76918959 2.06508089,10.7731219 1.28898461,11.483776 L1.28898461,11.483776 L1.28898461,11.483776 C0.512888333,12.1944301 0.0709346687,13.1983624 0.0709346687,14.2506716 L0.0709346687,14.3844972 L0.0709346687,14.3844972 C0.0709346687,15.3705353 0.870276484,16.1698771 1.85631458,16.1698771 Z"/>
  </g>
</svg>
