<svg xmlns="http://www.w3.org/2000/svg" width="12" height="16" viewBox="0 0 12 16">
  <g fill="#6A7C94" fill-rule="evenodd">
    <path d="M6.71343657,0.402468369 L11.5229549,5.29928095 L11.5229549,5.29928095 C11.9099514,5.6933015 11.9042572,6.32644087 11.5102367,6.71343732 C11.3232437,6.89709684 11.0716191,7 10.8095176,7 L1.19048089,7 L1.19048089,7 C0.638196142,7 0.190480892,6.55228475 0.190480892,6 C0.190480892,5.7378985 0.293384056,5.48627394 0.477043574,5.29928095 L5.28656194,0.402468369 L5.28656194,0.402468369 C5.67355838,0.00844781874 6.30669776,0.00275365851 6.70071831,0.389750106 C6.70499577,0.393951315 6.70923536,0.398190907 6.71343657,0.402468369 Z"/>
    <path d="M6.71343781,9.2992812 L11.5229562,14.1960938 L11.5229562,14.1960938 C11.9099526,14.5901143 11.9042585,15.2232537 11.5102379,15.6102501 C11.3232449,15.7939097 11.0716204,15.8968128 10.8095189,15.8968128 L1.19048213,15.8968128 L1.19048213,15.8968128 C0.638197379,15.8968128 0.190482129,15.4490976 0.190482129,14.8968128 C0.190482129,14.6347113 0.293385293,14.3830868 0.477044811,14.1960938 L5.28656317,9.2992812 L5.28656317,9.2992812 C5.67355962,8.90526065 6.306699,8.89956649 6.70071955,9.28656294 C6.70499701,9.29076414 6.7092366,9.29500374 6.71343781,9.2992812 Z" transform="rotate(180 6 12.448)"/>
  </g>
</svg>
